<svg xmlns="http://www.w3.org/2000/svg" viewBox="0 0 192 192" width="192" height="192">
  <defs>
    <linearGradient id="bg" x1="0" y1="0" x2="1" y2="1">
      <stop offset="0%" stop-color="#FCD116"/>
      <stop offset="50%" stop-color="#0066CC"/>
      <stop offset="100%" stop-color="#CE1126"/>
    </linearGradient>
  </defs>
  <rect width="192" height="192" rx="38" fill="url(#bg)"/>
  <g transform="translate(96 96)">
    <circle r="56" fill="#ffffff" stroke="#0f172a" stroke-width="2"/>
    <polygon points="0,-22 19.4,-6.8 12.6,17.5 -12.6,17.5 -19.4,-6.8" fill="#0f172a" stroke="#0f172a" stroke-width="1.5"/>
    <g fill="#0f172a" stroke="#0f172a" stroke-width="1.2">
      <polygon points="0,-46 16,-40 10,-30 -10,-30 -16,-40"/>
      <polygon points="44,-14 39,0 30,5 26,-11 36,-22"/>
      <polygon points="27,38 14,38 8,29 20,22 31,29"/>
      <polygon points="-27,38 -14,38 -8,29 -20,22 -31,29"/>
      <polygon points="-44,-14 -39,0 -30,5 -26,-11 -36,-22"/>
    </g>
    <g stroke="#0f172a" stroke-width="2" fill="none">
      <line x1="0" y1="-22" x2="16" y2="-40"/>
      <line x1="16" y1="-40" x2="36" y2="-22"/>
      <line x1="36" y1="-22" x2="44" y2="-14"/>
      <line x1="36" y1="-22" x2="27" y2="38"/>
      <line x1="27" y1="38" x2="-27" y2="38"/>
      <line x1="-27" y1="38" x2="-44" y2="-14"/>
      <line x1="-44" y1="-14" x2="-36" y2="-22"/>
      <line x1="-36" y1="-22" x2="-16" y2="-40"/>
      <line x1="-16" y1="-40" x2="0" y2="-22"/>
    </g>
  </g>
</svg>
