<svg xmlns="http://www.w3.org/2000/svg" viewBox="0 0 512 512" width="512" height="512">
  <defs>
    <linearGradient id="bg" x1="0" y1="0" x2="1" y2="1">
      <stop offset="0%" stop-color="#FCD116"/>
      <stop offset="50%" stop-color="#0066CC"/>
      <stop offset="100%" stop-color="#CE1126"/>
    </linearGradient>
  </defs>
  <rect width="512" height="512" rx="100" fill="url(#bg)"/>
  <g transform="translate(256 256)">
    <circle r="150" fill="#ffffff" stroke="#0f172a" stroke-width="3"/>
    <polygon points="0,-58 50,-19 33,46 -33,46 -50,-19" fill="#0f172a" stroke="#0f172a" stroke-width="2"/>
    <g fill="#0f172a" stroke="#0f172a" stroke-width="1.5">
      <polygon points="0,-122 42,-106 26,-80 -26,-80 -42,-106"/>
      <polygon points="118,-38 104,0 80,13 70,-30 96,-58"/>
      <polygon points="72,100 38,100 21,77 53,58 82,77"/>
      <polygon points="-72,100 -38,100 -21,77 -53,58 -82,77"/>
      <polygon points="-118,-38 -104,0 -80,13 -70,-30 -96,-58"/>
    </g>
    <g stroke="#0f172a" stroke-width="3" fill="none">
      <line x1="0" y1="-58" x2="42" y2="-106"/>
      <line x1="42" y1="-106" x2="96" y2="-58"/>
      <line x1="96" y1="-58" x2="118" y2="-38"/>
      <line x1="96" y1="-58" x2="72" y2="100"/>
      <line x1="72" y1="100" x2="-72" y2="100"/>
      <line x1="-72" y1="100" x2="-118" y2="-38"/>
      <line x1="-118" y1="-38" x2="-96" y2="-58"/>
      <line x1="-96" y1="-58" x2="-42" y2="-106"/>
      <line x1="-42" y1="-106" x2="0" y2="-58"/>
    </g>
  </g>
</svg>
