<svg xmlns="http://www.w3.org/2000/svg" viewBox="0 0 64 64" width="64" height="64">
  <defs>
    <linearGradient id="bg" x1="0" y1="0" x2="1" y2="1">
      <stop offset="0%" stop-color="#FCD116"/>
      <stop offset="50%" stop-color="#0066CC"/>
      <stop offset="100%" stop-color="#CE1126"/>
    </linearGradient>
  </defs>
  <rect width="64" height="64" rx="14" fill="url(#bg)"/>
  <g transform="translate(32 32)">
    <circle r="18" fill="#ffffff" stroke="#0f172a" stroke-width="1.5"/>
    <polygon points="0,-7 6.6,-2.2 4.1,5.7 -4.1,5.7 -6.6,-2.2" fill="#0f172a" stroke="#0f172a" stroke-width="0.6"/>
    <g fill="#0f172a" stroke="#0f172a" stroke-width="0.6">
      <polygon points="0,-15 5.2,-13 3.2,-9.7 -3.2,-9.7 -5.2,-13"/>
      <polygon points="14.3,-4.6 12.5,0 9.7,1.5 8.5,-3.5 11.5,-7"/>
      <polygon points="8.8,12.4 4.7,12.4 2.5,9.5 6.5,7 10,9.5"/>
      <polygon points="-8.8,12.4 -4.7,12.4 -2.5,9.5 -6.5,7 -10,9.5"/>
      <polygon points="-14.3,-4.6 -12.5,0 -9.7,1.5 -8.5,-3.5 -11.5,-7"/>
    </g>
    <g stroke="#0f172a" stroke-width="0.8" fill="none">
      <line x1="0" y1="-7" x2="5.2" y2="-13"/>
      <line x1="5.2" y1="-13" x2="11.5" y2="-7"/>
      <line x1="11.5" y1="-7" x2="14.3" y2="-4.6"/>
      <line x1="11.5" y1="-7" x2="8.8" y2="12.4"/>
      <line x1="8.8" y1="12.4" x2="-8.8" y2="12.4"/>
      <line x1="-8.8" y1="12.4" x2="-14.3" y2="-4.6"/>
      <line x1="-14.3" y1="-4.6" x2="-11.5" y2="-7"/>
      <line x1="-11.5" y1="-7" x2="-5.2" y2="-13"/>
      <line x1="-5.2" y1="-13" x2="0" y2="-7"/>
    </g>
  </g>
</svg>
